<?xml version="1.0" encoding="UTF-8" standalone="no"?>
<!-- Created with Inkscape (http://www.inkscape.org/) -->

<svg
   sodipodi:docname="Generator Info.svg"
   width="5.5in"
   height="4.25in"
   viewBox="0 0 139.7 107.95"
   version="1.1"
   id="svg93727"
   inkscape:version="1.4 (e7c3feb1, 2024-10-09)"
   xmlns:inkscape="http://www.inkscape.org/namespaces/inkscape"
   xmlns:sodipodi="http://sodipodi.sourceforge.net/DTD/sodipodi-0.dtd"
   xmlns="http://www.w3.org/2000/svg"
   xmlns:svg="http://www.w3.org/2000/svg">
  <sodipodi:namedview
     id="namedview93729"
     pagecolor="#ffffff"
     bordercolor="#666666"
     borderopacity="1.0"
     inkscape:showpageshadow="2"
     inkscape:pageopacity="0.0"
     inkscape:pagecheckerboard="0"
     inkscape:deskcolor="#d1d1d1"
     inkscape:document-units="in"
     showgrid="false"
     inkscape:zoom="0.69380916"
     inkscape:cx="488.60698"
     inkscape:cy="365.37425"
     inkscape:window-width="1728"
     inkscape:window-height="966"
     inkscape:window-x="0"
     inkscape:window-y="38"
     inkscape:window-maximized="0"
     inkscape:current-layer="layer1" />
  <defs
     id="defs93724" />
  <g
     inkscape:label="Layer 1"
     inkscape:groupmode="layer"
     id="layer1">
    <g
       inkscape:label="Hershey Text"
       style="fill:none;stroke:#000000;stroke-linecap:round;stroke-linejoin:round"
       id="g98113" />
    <g
       inkscape:label="Hershey Text"
       style="fill:none;stroke:#000000;stroke-linecap:round;stroke-linejoin:round"
       id="g978"
       transform="matrix(0.60786095,0,0,0.97764637,1.6864141,1.9668841)">
      <g
         transform="translate(3.00387,93.5833)"
         id="g917">
        <path
           d="m 662,504 -32,63 -63,63 -63,32 H 378 L 315,630 252,567 220,504 189,410 V 252 l 31,-94 32,-63.5 63,-63 L 378,0 h 126 l 63,31.5 63,63 32,63.5"
           style="stroke-width:0.1992in"
           transform="scale(0.00705556,-0.00705556)"
           id="path873" />
        <path
           d="M 220,441 V 0 m 0,252 32,94 63,64 63,31 h 94"
           style="stroke-width:0.1992in"
           transform="matrix(0.00705556,0,0,-0.00705556,4.67078,0)"
           id="path874" />
        <path
           d="m 189,252 h 378 v 63 l -31,63 -32,32 -63,31 H 346 L 284,410 220,346 189,252 V 189 L 220,94.5 284,31.5 346,0 h 95 l 63,31.5 63,63"
           style="stroke-width:0.1992in"
           transform="matrix(0.00705556,0,0,-0.00705556,7.56356,0)"
           id="path875" />
        <path
           d="M 567,441 V 0 m 0,346 -63,64 -63,31 H 346 L 284,410 220,346 189,252 V 189 L 220,94.5 284,31.5 346,0 h 95 l 63,31.5 63,63"
           style="stroke-width:0.1992in"
           transform="matrix(0.00705556,0,0,-0.00705556,11.5641,0)"
           id="path876" />
        <path
           d="M 252,662 V 126 L 284,31.5 346,0 h 64 M 158,441 h 220"
           style="stroke-width:0.1992in"
           transform="matrix(0.00705556,0,0,-0.00705556,15.7833,0)"
           id="path877" />
        <path
           d="m 189,252 h 378 v 63 l -31,63 -32,32 -63,31 H 346 L 284,410 220,346 189,252 V 189 L 220,94.5 284,31.5 346,0 h 95 l 63,31.5 63,63"
           style="stroke-width:0.1992in"
           transform="matrix(0.00705556,0,0,-0.00705556,18.4503,0)"
           id="path878" />
        <path
           d="M 567,662 V 0 m 0,346 -63,64 -63,31 H 346 L 284,410 220,346 189,252 V 189 L 220,94.5 284,31.5 346,0 h 95 l 63,31.5 63,63"
           style="stroke-width:0.1992in"
           transform="matrix(0.00705556,0,0,-0.00705556,22.4508,0)"
           id="path879" />
        <path
           d="M 189,441 315,0 M 441,441 315,0 M 441,441 567,0 M 693,441 567,0"
           style="stroke-width:0.1992in"
           transform="matrix(0.00705556,0,0,-0.00705556,29.337,0)"
           id="path880" />
        <path
           d="m 189,662 31,-32 32,32 -32,31 -31,-31 M 220,441 V 0"
           style="stroke-width:0.1992in"
           transform="matrix(0.00705556,0,0,-0.00705556,34.2265,0)"
           id="path881" />
        <path
           d="M 252,662 V 126 L 284,31.5 346,0 h 64 M 158,441 h 220"
           style="stroke-width:0.1992in"
           transform="matrix(0.00705556,0,0,-0.00705556,36.0045,0)"
           id="path882" />
        <path
           d="M 220,662 V 0 m 0,315 95,95 63,31 h 94 l 64,-31 31,-95 V 0"
           style="stroke-width:0.1992in"
           transform="matrix(0.00705556,0,0,-0.00705556,38.6715,0)"
           id="path883" />
        <path
           d="m 567,346 -63,64 -63,31 H 346 L 284,410 220,346 189,252 V 189 L 220,94.5 284,31.5 346,0 h 95 l 63,31.5 63,63"
           style="stroke-width:0.1992in"
           transform="matrix(0.00705556,0,0,-0.00705556,45.5578,0)"
           id="path884" />
        <path
           d="M 346,441 284,410 220,346 189,252 V 189 L 220,94.5 284,31.5 346,0 h 95 l 63,31.5 63,63 31,94.5 v 63 l -31,94 -63,64 -63,31 h -95"
           style="stroke-width:0.1992in"
           transform="matrix(0.00705556,0,0,-0.00705556,49.5583,0)"
           id="path885" />
        <path
           d="M 567,662 V 0 m 0,346 -63,64 -63,31 H 346 L 284,410 220,346 189,252 V 189 L 220,94.5 284,31.5 346,0 h 95 l 63,31.5 63,63"
           style="stroke-width:0.1992in"
           transform="matrix(0.00705556,0,0,-0.00705556,53.7775,0)"
           id="path886" />
        <path
           d="m 189,662 31,-32 32,32 -32,31 -31,-31 M 220,441 V 0"
           style="stroke-width:0.1992in"
           transform="matrix(0.00705556,0,0,-0.00705556,57.9967,0)"
           id="path887" />
        <path
           d="M 220,441 V 0 m 0,315 95,95 63,31 h 94 l 64,-31 31,-95 V 0"
           style="stroke-width:0.1992in"
           transform="matrix(0.00705556,0,0,-0.00705556,59.7747,0)"
           id="path888" />
        <path
           d="M 567,441 V -63 l -31,-95 -32,-31 -63,-31 h -95 l -62,31 m 283,535 -63,64 -63,31 H 346 L 284,410 220,346 189,252 V 189 L 220,94.5 284,31.5 346,0 h 95 l 63,31.5 63,63"
           style="stroke-width:0.1992in"
           transform="matrix(0.00705556,0,0,-0.00705556,63.9939,0)"
           id="path889" />
        <path
           d="M 220,662 V 0 m 0,315 95,95 63,31 h 94 l 64,-31 31,-95 V 0"
           style="stroke-width:0.1992in"
           transform="matrix(0.00705556,0,0,-0.00705556,70.8802,0)"
           id="path890" />
        <path
           d="m 189,252 h 378 v 63 l -31,63 -32,32 -63,31 H 346 L 284,410 220,346 189,252 V 189 L 220,94.5 284,31.5 346,0 h 95 l 63,31.5 63,63"
           style="stroke-width:0.1992in"
           transform="matrix(0.00705556,0,0,-0.00705556,75.0994,0)"
           id="path891" />
        <path
           d="M 220,662 V 0"
           style="stroke-width:0.1992in"
           transform="matrix(0.00705556,0,0,-0.00705556,79.0999,0)"
           id="path892" />
        <path
           d="m 220,441 v -661 m 0,566 64,64 62,31 h 95 l 63,-31 63,-64 31,-94 V 189 L 567,94.5 504,31.5 441,0 h -95 l -62,31.5 -64,63"
           style="stroke-width:0.1992in"
           transform="matrix(0.00705556,0,0,-0.00705556,80.8779,0)"
           id="path893" />
        <path
           d="M 410,662 H 346 L 284,630 252,536 V 0 m -94,441 h 220"
           style="stroke-width:0.1992in"
           transform="matrix(0.00705556,0,0,-0.00705556,87.7641,0)"
           id="path894" />
        <path
           d="M 220,441 V 0 m 0,252 32,94 63,64 63,31 h 94"
           style="stroke-width:0.1992in"
           transform="matrix(0.00705556,0,0,-0.00705556,90.4311,0)"
           id="path895" />
        <path
           d="M 346,441 284,410 220,346 189,252 V 189 L 220,94.5 284,31.5 346,0 h 95 l 63,31.5 63,63 31,94.5 v 63 l -31,94 -63,64 -63,31 h -95"
           style="stroke-width:0.1992in"
           transform="matrix(0.00705556,0,0,-0.00705556,93.3239,0)"
           id="path896" />
        <path
           d="M 220,441 V 0 m 0,315 95,95 63,31 h 94 l 64,-31 31,-95 V 0 m 0,315 95,95 62,31 h 95 l 63,-31 32,-95 V 0"
           style="stroke-width:0.1992in"
           transform="matrix(0.00705556,0,0,-0.00705556,97.5431,0)"
           id="path897" />
        <path
           d="m 662,504 -32,63 -63,63 -63,32 H 378 L 315,630 252,567 220,504 189,410 V 252 l 31,-94 32,-63.5 63,-63 L 378,0 h 126 l 63,31.5 63,63 32,63.5"
           style="stroke-width:0.1992in"
           transform="matrix(0.00705556,0,0,-0.00705556,106.878,0)"
           id="path898" />
        <path
           d="M 220,441 V 126 L 252,31.5 315,0 h 95 l 62,31.5 95,94.5 m 0,315 V 0"
           style="stroke-width:0.1992in"
           transform="matrix(0.00705556,0,0,-0.00705556,111.548,0)"
           id="path899" />
        <path
           d="M 220,441 V 0 m 0,252 32,94 63,64 63,31 h 94"
           style="stroke-width:0.1992in"
           transform="matrix(0.00705556,0,0,-0.00705556,115.768,0)"
           id="path900" />
        <path
           d="m 536,346 -32,64 -94,31 h -95 l -95,-31 -31,-64 31,-62 64,-32 157,-32 63,-31 32,-63 V 94.5 L 504,31.5 410,0 h -95 l -95,31.5 -31,63"
           style="stroke-width:0.1992in"
           transform="matrix(0.00705556,0,0,-0.00705556,118.66,0)"
           id="path901" />
        <path
           d="M 346,441 284,410 220,346 189,252 V 189 L 220,94.5 284,31.5 346,0 h 95 l 63,31.5 63,63 31,94.5 v 63 l -31,94 -63,64 -63,31 h -95"
           style="stroke-width:0.1992in"
           transform="matrix(0.00705556,0,0,-0.00705556,122.442,0)"
           id="path902" />
        <path
           d="M 220,441 V 0 m 0,252 32,94 63,64 63,31 h 94"
           style="stroke-width:0.1992in"
           transform="matrix(0.00705556,0,0,-0.00705556,126.661,0)"
           id="path903" />
        <path
           d="m 220,158 -31,-32 31,-31.5 32,31.5 -32,32"
           style="stroke-width:0.1992in"
           transform="matrix(0.00705556,0,0,-0.00705556,129.554,0)"
           id="path904" />
        <path
           d="M 346,662 V 0 M 126,662 h 441"
           style="stroke-width:0.1992in"
           transform="matrix(0.00705556,0,0,-0.00705556,133.999,0)"
           id="path905" />
        <path
           d="M 220,441 V 0 m 0,252 32,94 63,64 63,31 h 94"
           style="stroke-width:0.1992in"
           transform="matrix(0.00705556,0,0,-0.00705556,137.555,0)"
           id="path906" />
        <path
           d="M 158,441 346,0 M 536,441 346,0 l -62,-126 -64,-63 -62,-31 h -32"
           style="stroke-width:0.1992in"
           transform="matrix(0.00705556,0,0,-0.00705556,140.448,0)"
           id="path907" />
        <path
           d="m 189,662 31,-32 32,32 -32,31 -31,-31 M 220,441 V 0"
           style="stroke-width:0.1992in"
           transform="matrix(0.00705556,0,0,-0.00705556,146.671,0)"
           id="path908" />
        <path
           d="M 252,662 V 126 L 284,31.5 346,0 h 64 M 158,441 h 220"
           style="stroke-width:0.1992in"
           transform="matrix(0.00705556,0,0,-0.00705556,148.449,0)"
           id="path909" />
        <path
           d="M 346,441 284,410 220,346 189,252 V 189 L 220,94.5 284,31.5 346,0 h 95 l 63,31.5 63,63 31,94.5 v 63 l -31,94 -63,64 -63,31 h -95"
           style="stroke-width:0.1992in"
           transform="matrix(0.00705556,0,0,-0.00705556,153.783,0)"
           id="path910" />
        <path
           d="M 220,441 V 126 L 252,31.5 315,0 h 95 l 62,31.5 95,94.5 m 0,315 V 0"
           style="stroke-width:0.1992in"
           transform="matrix(0.00705556,0,0,-0.00705556,158.002,0)"
           id="path911" />
        <path
           d="M 252,662 V 126 L 284,31.5 346,0 h 64 M 158,441 h 220"
           style="stroke-width:0.1992in"
           transform="matrix(0.00705556,0,0,-0.00705556,162.221,0)"
           id="path912" />
        <path
           d="M 567,441 V 0 m 0,346 -63,64 -63,31 H 346 L 284,410 220,346 189,252 V 189 L 220,94.5 284,31.5 346,0 h 95 l 63,31.5 63,63"
           style="stroke-width:0.1992in"
           transform="matrix(0.00705556,0,0,-0.00705556,167.555,0)"
           id="path913" />
        <path
           d="M 252,662 V 126 L 284,31.5 346,0 h 64 M 158,441 h 220"
           style="stroke-width:0.1992in"
           transform="matrix(0.00705556,0,0,-0.00705556,171.775,0)"
           id="path914" />
        <path
           d="m 220,158 -31,-32 31,-31.5 32,31.5 -32,32"
           style="stroke-width:0.1992in"
           transform="matrix(0.00705556,0,0,-0.00705556,174.442,0)"
           id="path915" />
        <path
           d="m 220,158 -31,-32 31,-31.5 32,31.5 -32,32"
           style="stroke-width:0.1992in"
           transform="matrix(0.00705556,0,0,-0.00705556,176.22,0)"
           id="path916" />
        <path
           d="m 220,158 -31,-32 31,-31.5 32,31.5 -32,32"
           style="stroke-width:0.1992in"
           transform="matrix(0.00705556,0,0,-0.00705556,177.998,0)"
           id="path917" />
      </g>
      <g
         transform="translate(3.00387,102.793)"
         id="g977">
        <path
           d="M 220,662 V 0 m 0,315 95,95 63,31 h 94 l 64,-31 31,-95 V 0"
           style="stroke-width:0.1992in"
           transform="scale(0.00705556,-0.00705556)"
           id="path918" />
        <path
           d="M 252,662 V 126 L 284,31.5 346,0 h 64 M 158,441 h 220"
           style="stroke-width:0.1992in"
           transform="matrix(0.00705556,0,0,-0.00705556,4.21922,0)"
           id="path919" />
        <path
           d="M 252,662 V 126 L 284,31.5 346,0 h 64 M 158,441 h 220"
           style="stroke-width:0.1992in"
           transform="matrix(0.00705556,0,0,-0.00705556,6.88623,0)"
           id="path920" />
        <path
           d="m 220,441 v -661 m 0,566 64,64 62,31 h 95 l 63,-31 63,-64 31,-94 V 189 L 567,94.5 504,31.5 441,0 h -95 l -62,31.5 -64,63"
           style="stroke-width:0.1992in"
           transform="matrix(0.00705556,0,0,-0.00705556,9.55323,0)"
           id="path921" />
        <path
           d="m 536,346 -32,64 -94,31 h -95 l -95,-31 -31,-64 31,-62 64,-32 157,-32 63,-31 32,-63 V 94.5 L 504,31.5 410,0 h -95 l -95,31.5 -31,63"
           style="stroke-width:0.1992in"
           transform="matrix(0.00705556,0,0,-0.00705556,13.7725,0)"
           id="path922" />
        <path
           d="m 220,378 -31,-32 31,-31 32,31 -32,32 m 0,-220 -31,-32 31,-31.5 32,31.5 -32,32"
           style="stroke-width:0.1992in"
           transform="matrix(0.00705556,0,0,-0.00705556,17.5542,0)"
           id="path923" />
        <path
           d="M 724,788 158,-220"
           style="stroke-width:0.1992in"
           transform="matrix(0.00705556,0,0,-0.00705556,19.3322,0)"
           id="path924" />
        <path
           d="M 724,788 158,-220"
           style="stroke-width:0.1992in"
           transform="matrix(0.00705556,0,0,-0.00705556,24.2217,0)"
           id="path925" />
        <path
           d="m 252,662 32,-32 31,32 -31,31 -32,-31 M 284,441 V -94.5 l -32,-94.5 -63,-31 h -63"
           style="stroke-width:0.1992in"
           transform="matrix(0.00705556,0,0,-0.00705556,29.1112,0)"
           id="path926" />
        <path
           d="m 189,252 h 378 v 63 l -31,63 -32,32 -63,31 H 346 L 284,410 220,346 189,252 V 189 L 220,94.5 284,31.5 346,0 h 95 l 63,31.5 63,63"
           style="stroke-width:0.1992in"
           transform="matrix(0.00705556,0,0,-0.00705556,31.3337,0)"
           id="path927" />
        <path
           d="M 410,662 H 346 L 284,630 252,536 V 0 m -94,441 h 220"
           style="stroke-width:0.1992in"
           transform="matrix(0.00705556,0,0,-0.00705556,35.3342,0)"
           id="path928" />
        <path
           d="M 410,662 H 346 L 284,630 252,536 V 0 m -94,441 h 220"
           style="stroke-width:0.1992in"
           transform="matrix(0.00705556,0,0,-0.00705556,38.0012,0)"
           id="path929" />
        <path
           d="m 189,252 h 378 v 63 l -31,63 -32,32 -63,31 H 346 L 284,410 220,346 189,252 V 189 L 220,94.5 284,31.5 346,0 h 95 l 63,31.5 63,63"
           style="stroke-width:0.1992in"
           transform="matrix(0.00705556,0,0,-0.00705556,40.6682,0)"
           id="path930" />
        <path
           d="M 220,662 V 0"
           style="stroke-width:0.1992in"
           transform="matrix(0.00705556,0,0,-0.00705556,44.6688,0)"
           id="path931" />
        <path
           d="M 220,662 V 0"
           style="stroke-width:0.1992in"
           transform="matrix(0.00705556,0,0,-0.00705556,46.4468,0)"
           id="path932" />
        <path
           d="m 189,252 h 378 v 63 l -31,63 -32,32 -63,31 H 346 L 284,410 220,346 189,252 V 189 L 220,94.5 284,31.5 346,0 h 95 l 63,31.5 63,63"
           style="stroke-width:0.1992in"
           transform="matrix(0.00705556,0,0,-0.00705556,48.2248,0)"
           id="path933" />
        <path
           d="M 220,441 V 0 m 0,315 95,95 63,31 h 94 l 64,-31 31,-95 V 0"
           style="stroke-width:0.1992in"
           transform="matrix(0.00705556,0,0,-0.00705556,52.2253,0)"
           id="path934" />
        <path
           d="M 220,662 V 0 m 0,346 64,64 62,31 h 95 l 63,-31 63,-64 31,-94 V 189 L 567,94.5 504,31.5 441,0 h -95 l -62,31.5 -64,63"
           style="stroke-width:0.1992in"
           transform="matrix(0.00705556,0,0,-0.00705556,56.4445,0)"
           id="path935" />
        <path
           d="M 346,441 284,410 220,346 189,252 V 189 L 220,94.5 284,31.5 346,0 h 95 l 63,31.5 63,63 31,94.5 v 63 l -31,94 -63,64 -63,31 h -95"
           style="stroke-width:0.1992in"
           transform="matrix(0.00705556,0,0,-0.00705556,60.6637,0)"
           id="path936" />
        <path
           d="M 567,441 V -63 l -31,-95 -32,-31 -63,-31 h -95 l -62,31 m 283,535 -63,64 -63,31 H 346 L 284,410 220,346 189,252 V 189 L 220,94.5 284,31.5 346,0 h 95 l 63,31.5 63,63"
           style="stroke-width:0.1992in"
           transform="matrix(0.00705556,0,0,-0.00705556,64.8829,0)"
           id="path937" />
        <path
           d="m 189,252 h 378 v 63 l -31,63 -32,32 -63,31 H 346 L 284,410 220,346 189,252 V 189 L 220,94.5 284,31.5 346,0 h 95 l 63,31.5 63,63"
           style="stroke-width:0.1992in"
           transform="matrix(0.00705556,0,0,-0.00705556,69.1022,0)"
           id="path938" />
        <path
           d="M 220,441 V 0 m 0,315 95,95 63,31 h 94 l 64,-31 31,-95 V 0"
           style="stroke-width:0.1992in"
           transform="matrix(0.00705556,0,0,-0.00705556,73.1027,0)"
           id="path939" />
        <path
           d="m 220,158 -31,-32 31,-31.5 32,31.5 -32,32"
           style="stroke-width:0.1992in"
           transform="matrix(0.00705556,0,0,-0.00705556,77.3219,0)"
           id="path940" />
        <path
           d="M 567,441 V -63 l -31,-95 -32,-31 -63,-31 h -95 l -62,31 m 283,535 -63,64 -63,31 H 346 L 284,410 220,346 189,252 V 189 L 220,94.5 284,31.5 346,0 h 95 l 63,31.5 63,63"
           style="stroke-width:0.1992in"
           transform="matrix(0.00705556,0,0,-0.00705556,79.0999,0)"
           id="path941" />
        <path
           d="m 189,662 31,-32 32,32 -32,31 -31,-31 M 220,441 V 0"
           style="stroke-width:0.1992in"
           transform="matrix(0.00705556,0,0,-0.00705556,83.3191,0)"
           id="path942" />
        <path
           d="M 252,662 V 126 L 284,31.5 346,0 h 64 M 158,441 h 220"
           style="stroke-width:0.1992in"
           transform="matrix(0.00705556,0,0,-0.00705556,85.0971,0)"
           id="path943" />
        <path
           d="M 220,662 V 0 m 0,315 95,95 63,31 h 94 l 64,-31 31,-95 V 0"
           style="stroke-width:0.1992in"
           transform="matrix(0.00705556,0,0,-0.00705556,87.7641,0)"
           id="path944" />
        <path
           d="M 220,441 V 126 L 252,31.5 315,0 h 95 l 62,31.5 95,94.5 m 0,315 V 0"
           style="stroke-width:0.1992in"
           transform="matrix(0.00705556,0,0,-0.00705556,91.9833,0)"
           id="path945" />
        <path
           d="M 220,662 V 0 m 0,346 64,64 62,31 h 95 l 63,-31 63,-64 31,-94 V 189 L 567,94.5 504,31.5 441,0 h -95 l -62,31.5 -64,63"
           style="stroke-width:0.1992in"
           transform="matrix(0.00705556,0,0,-0.00705556,96.2026,0)"
           id="path946" />
        <path
           d="m 220,158 -31,-32 31,-31.5 32,31.5 -32,32"
           style="stroke-width:0.1992in"
           transform="matrix(0.00705556,0,0,-0.00705556,100.422,0)"
           id="path947" />
        <path
           d="m 189,662 31,-32 32,32 -32,31 -31,-31 M 220,441 V 0"
           style="stroke-width:0.1992in"
           transform="matrix(0.00705556,0,0,-0.00705556,102.2,0)"
           id="path948" />
        <path
           d="M 346,441 284,410 220,346 189,252 V 189 L 220,94.5 284,31.5 346,0 h 95 l 63,31.5 63,63 31,94.5 v 63 l -31,94 -63,64 -63,31 h -95"
           style="stroke-width:0.1992in"
           transform="matrix(0.00705556,0,0,-0.00705556,103.978,0)"
           id="path949" />
        <path
           d="M 724,788 158,-220"
           style="stroke-width:0.1992in"
           transform="matrix(0.00705556,0,0,-0.00705556,108.197,0)"
           id="path950" />
        <path
           d="m 662,504 -32,63 -63,63 -63,32 H 378 L 315,630 252,567 220,504 189,410 V 252 l 31,-94 32,-63.5 63,-63 L 378,0 h 126 l 63,31.5 63,63 32,63.5 v 94 m -158,0 h 158"
           style="stroke-width:0.1992in"
           transform="matrix(0.00705556,0,0,-0.00705556,113.087,0)"
           id="path951" />
        <path
           d="m 189,252 h 378 v 63 l -31,63 -32,32 -63,31 H 346 L 284,410 220,346 189,252 V 189 L 220,94.5 284,31.5 346,0 h 95 l 63,31.5 63,63"
           style="stroke-width:0.1992in"
           transform="matrix(0.00705556,0,0,-0.00705556,117.757,0)"
           id="path952" />
        <path
           d="M 346,441 284,410 220,346 189,252 V 189 L 220,94.5 284,31.5 346,0 h 95 l 63,31.5 63,63 31,94.5 v 63 l -31,94 -63,64 -63,31 h -95"
           style="stroke-width:0.1992in"
           transform="matrix(0.00705556,0,0,-0.00705556,121.758,0)"
           id="path953" />
        <path
           d="M 220,441 V 0 m 0,315 95,95 63,31 h 94 l 64,-31 31,-95 V 0 m 0,315 95,95 62,31 h 95 l 63,-31 32,-95 V 0"
           style="stroke-width:0.1992in"
           transform="matrix(0.00705556,0,0,-0.00705556,125.977,0)"
           id="path954" />
        <path
           d="m 189,252 h 378 v 63 l -31,63 -32,32 -63,31 H 346 L 284,410 220,346 189,252 V 189 L 220,94.5 284,31.5 346,0 h 95 l 63,31.5 63,63"
           style="stroke-width:0.1992in"
           transform="matrix(0.00705556,0,0,-0.00705556,132.645,0)"
           id="path955" />
        <path
           d="M 252,662 V 126 L 284,31.5 346,0 h 64 M 158,441 h 220"
           style="stroke-width:0.1992in"
           transform="matrix(0.00705556,0,0,-0.00705556,136.645,0)"
           id="path956" />
        <path
           d="M 220,441 V 0 m 0,252 32,94 63,64 63,31 h 94"
           style="stroke-width:0.1992in"
           transform="matrix(0.00705556,0,0,-0.00705556,139.312,0)"
           id="path957" />
        <path
           d="m 189,662 31,-32 32,32 -32,31 -31,-31 M 220,441 V 0"
           style="stroke-width:0.1992in"
           transform="matrix(0.00705556,0,0,-0.00705556,142.205,0)"
           id="path958" />
        <path
           d="m 567,346 -63,64 -63,31 H 346 L 284,410 220,346 189,252 V 189 L 220,94.5 284,31.5 346,0 h 95 l 63,31.5 63,63"
           style="stroke-width:0.1992in"
           transform="matrix(0.00705556,0,0,-0.00705556,143.983,0)"
           id="path959" />
        <path
           d="M 220,284 H 788"
           style="stroke-width:0.1992in"
           transform="matrix(0.00705556,0,0,-0.00705556,147.983,0)"
           id="path960" />
        <path
           d="M 220,662 V 0 m 0,662 h 284 l 94,-32 32,-32 32,-62 V 441 L 630,378 598,346 504,315 H 220"
           style="stroke-width:0.1992in"
           transform="matrix(0.00705556,0,0,-0.00705556,153.762,0)"
           id="path961" />
        <path
           d="M 567,441 V 0 m 0,346 -63,64 -63,31 H 346 L 284,410 220,346 189,252 V 189 L 220,94.5 284,31.5 346,0 h 95 l 63,31.5 63,63"
           style="stroke-width:0.1992in"
           transform="matrix(0.00705556,0,0,-0.00705556,158.433,0)"
           id="path962" />
        <path
           d="M 252,662 V 126 L 284,31.5 346,0 h 64 M 158,441 h 220"
           style="stroke-width:0.1992in"
           transform="matrix(0.00705556,0,0,-0.00705556,162.652,0)"
           id="path963" />
        <path
           d="M 252,662 V 126 L 284,31.5 346,0 h 64 M 158,441 h 220"
           style="stroke-width:0.1992in"
           transform="matrix(0.00705556,0,0,-0.00705556,165.319,0)"
           id="path964" />
        <path
           d="m 189,252 h 378 v 63 l -31,63 -32,32 -63,31 H 346 L 284,410 220,346 189,252 V 189 L 220,94.5 284,31.5 346,0 h 95 l 63,31.5 63,63"
           style="stroke-width:0.1992in"
           transform="matrix(0.00705556,0,0,-0.00705556,167.986,0)"
           id="path965" />
        <path
           d="M 220,441 V 0 m 0,252 32,94 63,64 63,31 h 94"
           style="stroke-width:0.1992in"
           transform="matrix(0.00705556,0,0,-0.00705556,171.986,0)"
           id="path966" />
        <path
           d="M 220,441 V 0 m 0,315 95,95 63,31 h 94 l 64,-31 31,-95 V 0"
           style="stroke-width:0.1992in"
           transform="matrix(0.00705556,0,0,-0.00705556,174.879,0)"
           id="path967" />
        <path
           d="M 220,284 H 788"
           style="stroke-width:0.1992in"
           transform="matrix(0.00705556,0,0,-0.00705556,179.098,0)"
           id="path968" />
        <path
           d="m 662,504 -32,63 -63,63 -63,32 H 378 L 315,630 252,567 220,504 189,410 V 252 l 31,-94 32,-63.5 63,-63 L 378,0 h 126 l 63,31.5 63,63 32,63.5 v 94 m -158,0 h 158"
           style="stroke-width:0.1992in"
           transform="matrix(0.00705556,0,0,-0.00705556,184.877,0)"
           id="path969" />
        <path
           d="m 189,252 h 378 v 63 l -31,63 -32,32 -63,31 H 346 L 284,410 220,346 189,252 V 189 L 220,94.5 284,31.5 346,0 h 95 l 63,31.5 63,63"
           style="stroke-width:0.1992in"
           transform="matrix(0.00705556,0,0,-0.00705556,189.548,0)"
           id="path970" />
        <path
           d="M 220,441 V 0 m 0,315 95,95 63,31 h 94 l 64,-31 31,-95 V 0"
           style="stroke-width:0.1992in"
           transform="matrix(0.00705556,0,0,-0.00705556,193.548,0)"
           id="path971" />
        <path
           d="m 189,252 h 378 v 63 l -31,63 -32,32 -63,31 H 346 L 284,410 220,346 189,252 V 189 L 220,94.5 284,31.5 346,0 h 95 l 63,31.5 63,63"
           style="stroke-width:0.1992in"
           transform="matrix(0.00705556,0,0,-0.00705556,197.767,0)"
           id="path972" />
        <path
           d="M 220,441 V 0 m 0,252 32,94 63,64 63,31 h 94"
           style="stroke-width:0.1992in"
           transform="matrix(0.00705556,0,0,-0.00705556,201.768,0)"
           id="path973" />
        <path
           d="M 567,441 V 0 m 0,346 -63,64 -63,31 H 346 L 284,410 220,346 189,252 V 189 L 220,94.5 284,31.5 346,0 h 95 l 63,31.5 63,63"
           style="stroke-width:0.1992in"
           transform="matrix(0.00705556,0,0,-0.00705556,204.661,0)"
           id="path974" />
        <path
           d="M 252,662 V 126 L 284,31.5 346,0 h 64 M 158,441 h 220"
           style="stroke-width:0.1992in"
           transform="matrix(0.00705556,0,0,-0.00705556,208.88,0)"
           id="path975" />
        <path
           d="M 346,441 284,410 220,346 189,252 V 189 L 220,94.5 284,31.5 346,0 h 95 l 63,31.5 63,63 31,94.5 v 63 l -31,94 -63,64 -63,31 h -95"
           style="stroke-width:0.1992in"
           transform="matrix(0.00705556,0,0,-0.00705556,211.547,0)"
           id="path976" />
        <path
           d="M 220,441 V 0 m 0,252 32,94 63,64 63,31 h 94"
           style="stroke-width:0.1992in"
           transform="matrix(0.00705556,0,0,-0.00705556,215.766,0)"
           id="path977" />
      </g>
    </g>
    <g
       transform="matrix(1.6610223,0,0,2.6893634,3.2023638,12.311783)"
       id="g86"
       style="fill:none;stroke:#000000;stroke-linecap:round;stroke-linejoin:round">
      <path
         d="M 132,18.9 V 652"
         style="stroke-width:0.4427in"
         transform="scale(0.003175,-0.003175)"
         id="path66" />
      <path
         d="M 346,315 H 520 V 81.9 L 479,53.6 391,22.1 328,18.9 265,31.5 208,63 l -66,76 -44.4,94 -9.4,110 12.8,107 41,95 66,72 66,32 76,13 82,-13 50,-28 35,-29"
         style="stroke-width:0.4427in"
         transform="matrix(0.003175,0,0,-0.003175,0.8509,0)"
         id="path67" />
      <path
         d="M 97.6,454 V 406 H 145 v 48 H 97.6 m 0,-381.6 V 25.2 H 145 V 72.4 H 97.6"
         style="stroke-width:0.4427in"
         transform="matrix(0.003175,0,0,-0.003175,2.8321,0)"
         id="path68" />
      <path
         d="m -9.45,-186 h 6.3 l 34.65,-9 47.3,3 41.2,28 12,51 v 595 m -28,186 v -47 h 50 v 47 h -50"
         style="stroke-width:0.4427in"
         transform="matrix(0.003175,0,0,-0.003175,4.82282,0)"
         id="path69" />
      <path
         d="M 88.2,265 H 435 v 56 l -16,73 -47,56 -48,32 -66,3 -66,-19 -57,-47 -22,-47 -24.8,-60 -6.3,-63 15.7,-76 28.4,-69 57,-56.8 53,-25.1 66,-6.3 57,15.7 54,28.4"
         style="stroke-width:0.4427in"
         transform="matrix(0.003175,0,0,-0.003175,5.6515,0)"
         id="path70" />
      <path
         d="M 135,18.9 V 472 H 59.9 255 132 v 139 l 10,47 31,48 47,18 41,-6 29,-12"
         style="stroke-width:0.4427in"
         transform="matrix(0.003175,0,0,-0.003175,7.2517,0)"
         id="path71" />
      <path
         d="M 135,18.9 V 472 H 59.9 255 132 v 139 l 10,47 31,48 47,18 41,-6 29,-12"
         style="stroke-width:0.4427in"
         transform="matrix(0.003175,0,0,-0.003175,8.17245,0)"
         id="path72" />
      <path
         d="M 129,18.9 V 482 340 l 29,57 44,57 47,22 44,6 28,-3"
         style="stroke-width:0.4427in"
         transform="matrix(0.003175,0,0,-0.003175,9.0932,0)"
         id="path73" />
      <path
         d="M 88.2,265 H 435 v 56 l -16,73 -47,56 -48,32 -66,3 -66,-19 -57,-47 -22,-47 -24.8,-60 -6.3,-63 15.7,-76 28.4,-69 57,-56.8 53,-25.1 66,-6.3 57,15.7 54,28.4"
         style="stroke-width:0.4427in"
         transform="matrix(0.003175,0,0,-0.003175,10.1727,0)"
         id="path74" />
      <path
         d="M 53.5,479 243,3.15 M 406,476 211,-78.8 189,-126 158,-161 120,-183 H 53.5"
         style="stroke-width:0.4427in"
         transform="matrix(0.003175,0,0,-0.003175,11.7729,0)"
         id="path75" />
      <path
         d="M 28.4,-81.9 H 501"
         style="stroke-width:0.4427in"
         transform="matrix(0.003175,0,0,-0.003175,13.2334,0)"
         id="path76" />
      <path
         d="M 88.2,265 H 435 v 56 l -16,73 -47,56 -48,32 -66,3 -66,-19 -57,-47 -22,-47 -24.8,-60 -6.3,-63 15.7,-76 28.4,-69 57,-56.8 53,-25.1 66,-6.3 57,15.7 54,28.4"
         style="stroke-width:0.4427in"
         transform="matrix(0.003175,0,0,-0.003175,14.913,0)"
         id="path77" />
      <path
         d="M 129,715 V 63 l 6,-22.1 10,-12.5 16,-9.5 h 22"
         style="stroke-width:0.4427in"
         transform="matrix(0.003175,0,0,-0.003175,16.5132,0)"
         id="path78" />
      <path
         d="M 129,715 V 63 l 6,-22.1 10,-12.5 16,-9.5 h 22"
         style="stroke-width:0.4427in"
         transform="matrix(0.003175,0,0,-0.003175,17.3545,0)"
         id="path79" />
      <path
         d="M 88.2,265 H 435 v 56 l -16,73 -47,56 -48,32 -66,3 -66,-19 -57,-47 -22,-47 -24.8,-60 -6.3,-63 15.7,-76 28.4,-69 57,-56.8 53,-25.1 66,-6.3 57,15.7 54,28.4"
         style="stroke-width:0.4427in"
         transform="matrix(0.003175,0,0,-0.003175,18.1959,0)"
         id="path80" />
      <path
         d="M 126,15.8 V 482 369 l 44,44 41,37 32,19 47,13 31,3 48,-13 28,-18 22,-32 19,-44 V 15.8"
         style="stroke-width:0.4427in"
         transform="matrix(0.003175,0,0,-0.003175,19.7961,0)"
         id="path81" />
      <path
         d="M 123,718 V 15.8 101 l 35,-28.6 53,-34.6 57,-15.7 56,-3.2 67,37.8 41,44.3 31,63 13,79 -4,78 -15,73 -47,60 -41,22 -57,12 -60,-12 -60,-32 -63,-50"
         style="stroke-width:0.4427in"
         transform="matrix(0.003175,0,0,-0.003175,21.5678,0)"
         id="path82" />
      <path
         d="m 287,18.9 h 3 l 63,15.7 60,41 37,63.4 16,69 3,66 -9,60 -22,53 -32,41 -44,38 -47,16 -44,3 -51,-9 -47,-29 -41,-47 -22,-44 -18.6,-66 v -51 l 6.2,-59 15.4,-54 38,-50.4 44,-34.7 48,-18.8 44,-3.2"
         style="stroke-width:0.4427in"
         transform="matrix(0.003175,0,0,-0.003175,23.3585,0)"
         id="path83" />
      <path
         d="M 170,40.9 123,-3.15 91.4,-56.7 85,-113 l 44,-48 73,-31 85,-10 75,19 76,51 28,47 -3,53.5 -28,50.4 -70,18.9 H 173 l -41,28.3 -19,43.9 10,41 53,60 35,-22 54,-9 66,22 47,44 22,53 v 63 l -25,57 -19,25 -44,28 H 463 312 l -47,10 -73,-6 -50,-41 -29,-57 -3,-63 13,-50 25,-32 28,-25"
         style="stroke-width:0.4427in"
         transform="matrix(0.003175,0,0,-0.003175,25.1396,0)"
         id="path84" />
      <path
         d="M 88.2,265 H 435 v 56 l -16,73 -47,56 -48,32 -66,3 -66,-19 -57,-47 -22,-47 -24.8,-60 -6.3,-63 15.7,-76 28.4,-69 57,-56.8 53,-25.1 66,-6.3 57,15.7 54,28.4"
         style="stroke-width:0.4427in"
         transform="matrix(0.003175,0,0,-0.003175,26.7589,0)"
         id="path85" />
      <path
         d="M 126,15.8 V 482 369 l 44,44 41,37 32,19 47,13 31,3 48,-13 28,-18 22,-32 19,-44 V 15.8"
         style="stroke-width:0.4427in"
         transform="matrix(0.003175,0,0,-0.003175,28.3591,0)"
         id="path86" />
    </g>
    <g
       transform="matrix(1.6610223,0,0,2.6893634,3.2023638,22.985328)"
       id="g113"
       style="fill:none;stroke:#000000;stroke-linecap:round;stroke-linejoin:round">
      <path
         d="M 545,413 504,173 454,123 403,97.6 343,94.5 290,135 l -16,67 19,100 53,79 73,38 63,-13 31,-28 19,-38 -28,-173 6,-38 54,-40.8 72,6.3 60,50.5 41,66 13,82 -3,85 -26,91 -44,67 -56,50 -92,31 -97,7 L 346,608 249,558 180,491 132,419 94.5,324 81.9,243 V 173 L 104,78.8 142,3.15 l 78,-69.25 70,-31.5 97,-19.4 92,4 85,43.7"
         style="stroke-width:0.4427in"
         transform="scale(0.003175,-0.003175)"
         id="path87" />
      <path
         d="m -9.45,-186 h 6.3 l 34.65,-9 47.3,3 41.2,28 12,51 v 595 m -28,186 v -47 h 50 v 47 h -50"
         style="stroke-width:0.4427in"
         transform="matrix(0.003175,0,0,-0.003175,2.6416,0)"
         id="path88" />
      <path
         d="M 88.2,265 H 435 v 56 l -16,73 -47,56 -48,32 -66,3 -66,-19 -57,-47 -22,-47 -24.8,-60 -6.3,-63 15.7,-76 28.4,-69 57,-56.8 53,-25.1 66,-6.3 57,15.7 54,28.4"
         style="stroke-width:0.4427in"
         transform="matrix(0.003175,0,0,-0.003175,3.47027,0)"
         id="path89" />
      <path
         d="M 135,18.9 V 472 H 59.9 255 132 v 139 l 10,47 31,48 47,18 41,-6 29,-12"
         style="stroke-width:0.4427in"
         transform="matrix(0.003175,0,0,-0.003175,5.07048,0)"
         id="path90" />
      <path
         d="M 135,18.9 V 472 H 59.9 255 132 v 139 l 10,47 31,48 47,18 41,-6 29,-12"
         style="stroke-width:0.4427in"
         transform="matrix(0.003175,0,0,-0.003175,5.99123,0)"
         id="path91" />
      <path
         d="M 88.2,265 H 435 v 56 l -16,73 -47,56 -48,32 -66,3 -66,-19 -57,-47 -22,-47 -24.8,-60 -6.3,-63 15.7,-76 28.4,-69 57,-56.8 53,-25.1 66,-6.3 57,15.7 54,28.4"
         style="stroke-width:0.4427in"
         transform="matrix(0.003175,0,0,-0.003175,6.91197,0)"
         id="path92" />
      <path
         d="M 129,715 V 63 l 6,-22.1 10,-12.5 16,-9.5 h 22"
         style="stroke-width:0.4427in"
         transform="matrix(0.003175,0,0,-0.003175,8.51217,0)"
         id="path93" />
      <path
         d="M 129,715 V 63 l 6,-22.1 10,-12.5 16,-9.5 h 22"
         style="stroke-width:0.4427in"
         transform="matrix(0.003175,0,0,-0.003175,9.35355,0)"
         id="path94" />
      <path
         d="M 88.2,265 H 435 v 56 l -16,73 -47,56 -48,32 -66,3 -66,-19 -57,-47 -22,-47 -24.8,-60 -6.3,-63 15.7,-76 28.4,-69 57,-56.8 53,-25.1 66,-6.3 57,15.7 54,28.4"
         style="stroke-width:0.4427in"
         transform="matrix(0.003175,0,0,-0.003175,10.1949,0)"
         id="path95" />
      <path
         d="M 126,15.8 V 482 369 l 44,44 41,37 32,19 47,13 31,3 48,-13 28,-18 22,-32 19,-44 V 15.8"
         style="stroke-width:0.4427in"
         transform="matrix(0.003175,0,0,-0.003175,11.7951,0)"
         id="path96" />
      <path
         d="M 123,718 V 15.8 101 l 35,-28.6 53,-34.6 57,-15.7 56,-3.2 67,37.8 41,44.3 31,63 13,79 -4,78 -15,73 -47,60 -41,22 -57,12 -60,-12 -60,-32 -63,-50"
         style="stroke-width:0.4427in"
         transform="matrix(0.003175,0,0,-0.003175,13.5668,0)"
         id="path97" />
      <path
         d="m 287,18.9 h 3 l 63,15.7 60,41 37,63.4 16,69 3,66 -9,60 -22,53 -32,41 -44,38 -47,16 -44,3 -51,-9 -47,-29 -41,-47 -22,-44 -18.6,-66 v -51 l 6.2,-59 15.4,-54 38,-50.4 44,-34.7 48,-18.8 44,-3.2"
         style="stroke-width:0.4427in"
         transform="matrix(0.003175,0,0,-0.003175,15.3575,0)"
         id="path98" />
      <path
         d="M 170,40.9 123,-3.15 91.4,-56.7 85,-113 l 44,-48 73,-31 85,-10 75,19 76,51 28,47 -3,53.5 -28,50.4 -70,18.9 H 173 l -41,28.3 -19,43.9 10,41 53,60 35,-22 54,-9 66,22 47,44 22,53 v 63 l -25,57 -19,25 -44,28 H 463 312 l -47,10 -73,-6 -50,-41 -29,-57 -3,-63 13,-50 25,-32 28,-25"
         style="stroke-width:0.4427in"
         transform="matrix(0.003175,0,0,-0.003175,17.1386,0)"
         id="path99" />
      <path
         d="M 88.2,265 H 435 v 56 l -16,73 -47,56 -48,32 -66,3 -66,-19 -57,-47 -22,-47 -24.8,-60 -6.3,-63 15.7,-76 28.4,-69 57,-56.8 53,-25.1 66,-6.3 57,15.7 54,28.4"
         style="stroke-width:0.4427in"
         transform="matrix(0.003175,0,0,-0.003175,18.7579,0)"
         id="path100" />
      <path
         d="M 126,15.8 V 482 369 l 44,44 41,37 32,19 47,13 31,3 48,-13 28,-18 22,-32 19,-44 V 15.8"
         style="stroke-width:0.4427in"
         transform="matrix(0.003175,0,0,-0.003175,20.3581,0)"
         id="path101" />
      <path
         d="M 97.6,72.4 V 22.1 H 148 V 72.4 H 97.6"
         style="stroke-width:0.4427in"
         transform="matrix(0.003175,0,0,-0.003175,22.1297,0)"
         id="path102" />
      <path
         d="M 123,718 V 15.8 101 l 35,-28.6 53,-34.6 57,-15.7 56,-3.2 67,37.8 41,44.3 31,63 13,79 -4,78 -15,73 -47,60 -41,22 -57,12 -60,-12 -60,-32 -63,-50"
         style="stroke-width:0.4427in"
         transform="matrix(0.003175,0,0,-0.003175,22.9203,0)"
         id="path103" />
      <path
         d="m 66.1,78.8 56.9,-37.9 63,-18.8 50,-6.3 63,22 47,37.8 16,56.4 -12,57 -57,47 -79,32 -72,31 -41,41 -9.6,47 15.6,45 51,44 62,9 64,-13 53,-31"
         style="stroke-width:0.4427in"
         transform="matrix(0.003175,0,0,-0.003175,24.711,0)"
         id="path104" />
      <path
         d="M 123,15.8 V 718 M 400,479 126,148 M 255,306 435,15.8"
         style="stroke-width:0.4427in"
         transform="matrix(0.003175,0,0,-0.003175,26.0699,0)"
         id="path105" />
      <path
         d="M 53.5,479 243,3.15 M 406,476 211,-78.8 189,-126 158,-161 120,-183 H 53.5"
         style="stroke-width:0.4427in"
         transform="matrix(0.003175,0,0,-0.003175,27.6098,0)"
         id="path106" />
      <path
         d="M 97.6,72.4 V 22.1 H 148 V 72.4 H 97.6"
         style="stroke-width:0.4427in"
         transform="matrix(0.003175,0,0,-0.003175,29.0703,0)"
         id="path107" />
      <path
         d="m 66.1,78.8 56.9,-37.9 63,-18.8 50,-6.3 63,22 47,37.8 16,56.4 -12,57 -57,47 -79,32 -72,31 -41,41 -9.6,47 15.6,45 51,44 62,9 64,-13 53,-31"
         style="stroke-width:0.4427in"
         transform="matrix(0.003175,0,0,-0.003175,29.8609,0)"
         id="path108" />
      <path
         d="m 287,18.9 h 3 l 63,15.7 60,41 37,63.4 16,69 3,66 -9,60 -22,53 -32,41 -44,38 -47,16 -44,3 -51,-9 -47,-29 -41,-47 -22,-44 -18.6,-66 v -51 l 6.2,-59 15.4,-54 38,-50.4 44,-34.7 48,-18.8 44,-3.2"
         style="stroke-width:0.4427in"
         transform="matrix(0.003175,0,0,-0.003175,31.2198,0)"
         id="path109" />
      <path
         d="M 413,72.4 362,34.6 287,18.9 217,28.4 145,75.6 104,142 88.2,220 v 82 l 24.8,76 51,60 60,34 66,10 56,-10 38,-18 16,-19"
         style="stroke-width:0.4427in"
         transform="matrix(0.003175,0,0,-0.003175,33.0009,0)"
         id="path110" />
      <path
         d="M 126,15.8 V 479 M 97.6,671 V 621 H 148 v 50 H 97.6"
         style="stroke-width:0.4427in"
         transform="matrix(0.003175,0,0,-0.003175,34.4995,0)"
         id="path111" />
      <path
         d="m 117,428 66,38 56,16 57,6 44,-16 38,-34 25,-51 3,-69 V 107 22.1 L 403,107 362,78.8 318,47.2 268,25.2 211,15.8 164,31.5 126,56.7 97.6,97.6 V 158 l 22.4,47 50,41 50,19 60,19 57,9 35,3 h 28"
         style="stroke-width:0.4427in"
         transform="matrix(0.003175,0,0,-0.003175,35.2996,0)"
         id="path112" />
      <path
         d="M 129,715 V 63 l 6,-22.1 10,-12.5 16,-9.5 h 22"
         style="stroke-width:0.4427in"
         transform="matrix(0.003175,0,0,-0.003175,36.9507,0)"
         id="path113" />
    </g>
  </g>
  <plotdata
     application="axidraw"
     model="2"
     plob_version="n/a"
     layer="-2"
     pause_dist="-25400"
     pause_ref="-25400"
     last_x="4.875017056704678e-13"
     last_y="-3.741082096886394e-13"
     rand_seed="1"
     row="0" />
</svg>
